<svg id="Layer_1" data-name="Layer 1" xmlns="http://www.w3.org/2000/svg" xmlns:xlink="http://www.w3.org/1999/xlink" viewBox="0 0 1080 450"><defs><style>.cls-1{fill:none;}.cls-2{fill:#fff;}.cls-3{opacity:0.5;}.cls-4{clip-path:url(#clip-path);}</style><clipPath id="clip-path"><rect class="cls-1" x="1152.3" y="28.58" width="360" height="450"/></clipPath></defs><title>LMT_Logo_1080x450_Sekundarais</title><rect class="cls-1" x="128.79" y="140.03" width="411.03" height="169.95"/><path d="M465.77,245a8.33,8.33,0,0,1-5.59-2c-.53-.51-12.84-12.37-17.56-16.8a7.31,7.31,0,0,1-2.4-5.66,7.53,7.53,0,0,1,2.93-5.55l24.15-17.45a13.38,13.38,0,0,1,7.35-2.56,8.28,8.28,0,0,1,8.17,6.35L489,227a7.66,7.66,0,0,1-3.31,7.72l-16.17,9.35a7.57,7.57,0,0,1-3.74.91m28.75-19.32L488.35,200a13.89,13.89,0,0,0-13.69-10.68,19,19,0,0,0-10.59,3.57l-24.31,17.57-.08.06a12.91,12.91,0,0,0-.95,19.86c4.77,4.49,17.4,16.65,17.53,16.77l0,0a13.93,13.93,0,0,0,9.5,3.53,13.17,13.17,0,0,0,6.59-1.67l16.18-9.35a13.3,13.3,0,0,0,6-14"/><path d="M450,219.15a7.26,7.26,0,0,1-2.22-.34l-14.6-4.74a10.74,10.74,0,0,1-6.76-9.3V182.48a8.3,8.3,0,0,1,1.78-5.63,5.47,5.47,0,0,1,4.23-1.77h0a10.09,10.09,0,0,1,3.75.8l25.32,10.23a9.06,9.06,0,0,1,4.67,13.16L457.48,215a8.81,8.81,0,0,1-7.5,4.18m22.3-29.45a14.92,14.92,0,0,0-8.67-8.85l-25.33-10.24a15.71,15.71,0,0,0-5.89-1.22c-6.89,0-11.7,5.38-11.7,13.08v22.29a16.27,16.27,0,0,0,10.69,14.72L446,224.23a12.84,12.84,0,0,0,4,.62,14.53,14.53,0,0,0,12.48-7.11L471.13,202a14.93,14.93,0,0,0,1.15-12.34"/><path d="M399.07,214.83l39.66-14.78a7.37,7.37,0,0,1,2.46-.45c2.71,0,4.68,1.75,5.28,4.68l2.46,12.08,3,14.72a2.74,2.74,0,0,1-.23,2.15,1.76,1.76,0,0,1-1.36.47,4.64,4.64,0,0,1-.94-.1l-48.09-10h0c-3.64-.7-6-2.36-6.17-4.33-.14-1.7,1.45-3.48,4-4.42m58.44,15.11-5.46-26.79a11,11,0,0,0-10.86-9.24,13,13,0,0,0-4.4.79l-39.72,14.8c-5,1.87-8,5.89-7.65,10.23a9,9,0,0,0,3.14,6,15.75,15.75,0,0,0,7.6,3.45l48.07,10a10.35,10.35,0,0,0,2.1.22h0a7.25,7.25,0,0,0,5.76-2.56,8.12,8.12,0,0,0,1.4-6.89"/><path d="M412.68,207.42l-18.55-23.57a11.11,11.11,0,0,0-8.71-4.6c-4,0-7.59,2.46-9.59,6.6l-17.17,35.76c-2.13,4.4-.92,7.49,0,8.93a7.86,7.86,0,0,0,6.86,3.58,12,12,0,0,0,3.25-.48l39-11a9.3,9.3,0,0,0,4.93-15.2Zm-6.45,9.81-39,11c-3.55,1-5.14-.89-3.53-4.21l17.17-35.77c2-4.16,6-4.59,8.86-1l18.55,23.57C410.33,213.47,409.4,216.33,406.23,217.23Z"/><rect x="188.92" y="189.88" width="14.41" height="80.1"/><path d="M214.95,209.93h13.22v5.53C231,210,238.36,208,244,208a20.26,20.26,0,0,1,16,7.48,11.84,11.84,0,0,1,1.41,1.84,6.57,6.57,0,0,1,1.52-1.84c4.23-5.09,11.06-7.48,17.56-7.48,7,0,13.55,2.06,18.32,7.48,5.53,6,6.18,13,6.18,20.81V270H290.6V238c0-3.47-.11-8.45-2.17-11.49a10.94,10.94,0,0,0-9-4.44,11.47,11.47,0,0,0-10,5.2c-2.49,3.9-2.28,9.76-2.28,14.09V270H252.77V238c0-3.9,0-7.59-2.28-11.05a11.28,11.28,0,0,0-9.43-4.88c-11.49,0-11.71,10.84-11.71,19.29V270H214.95Z"/><polygon points="315.73 189.88 330.14 189.88 330.14 209.93 342.61 209.93 342.61 222.72 330.14 222.72 330.14 269.97 315.73 269.97 315.73 189.88"/><rect x="540.18" y="140.03" width="411.03" height="169.95"/><path class="cls-2" d="M877.16,245a8.33,8.33,0,0,1-5.59-2c-.53-.51-12.84-12.37-17.56-16.8a7.31,7.31,0,0,1-2.4-5.66,7.53,7.53,0,0,1,2.93-5.55l24.15-17.45A13.37,13.37,0,0,1,886,195a8.27,8.27,0,0,1,8.17,6.35L900.38,227a7.66,7.66,0,0,1-3.31,7.72l-16.17,9.35a7.57,7.57,0,0,1-3.74.91m28.75-19.32L899.74,200A13.89,13.89,0,0,0,886,189.29a19,19,0,0,0-10.59,3.57l-24.31,17.57-.08.06a12.91,12.91,0,0,0-.95,19.86c4.77,4.49,17.4,16.65,17.53,16.77l0,0a13.93,13.93,0,0,0,9.5,3.53,13.17,13.17,0,0,0,6.59-1.67l16.18-9.35a13.3,13.3,0,0,0,6-14"/><path class="cls-2" d="M861.36,219.15a7.25,7.25,0,0,1-2.22-.34l-14.6-4.74a10.74,10.74,0,0,1-6.76-9.3V182.48a8.3,8.3,0,0,1,1.78-5.63,5.47,5.47,0,0,1,4.23-1.77h0a10.09,10.09,0,0,1,3.75.8l25.32,10.23a9.06,9.06,0,0,1,4.67,13.16L868.87,215a8.81,8.81,0,0,1-7.5,4.18m22.3-29.45a14.92,14.92,0,0,0-8.67-8.85l-25.33-10.24a15.71,15.71,0,0,0-5.89-1.22c-6.89,0-11.7,5.38-11.7,13.08v22.29a16.27,16.27,0,0,0,10.69,14.72l14.61,4.74a12.83,12.83,0,0,0,4,.62,14.53,14.53,0,0,0,12.48-7.11L882.52,202a14.93,14.93,0,0,0,1.15-12.34"/><path class="cls-2" d="M810.46,214.83l39.66-14.78a7.37,7.37,0,0,1,2.46-.45c2.71,0,4.69,1.75,5.28,4.68l2.46,12.08,3,14.72a2.74,2.74,0,0,1-.24,2.15,1.76,1.76,0,0,1-1.36.47,4.64,4.64,0,0,1-.94-.1l-48.09-10h0c-3.64-.7-6-2.36-6.17-4.33-.14-1.7,1.45-3.48,4-4.42m58.44,15.11-5.46-26.79a11,11,0,0,0-10.86-9.24,13,13,0,0,0-4.4.79l-39.72,14.8c-5,1.87-8,5.89-7.65,10.23a9,9,0,0,0,3.14,6,15.75,15.75,0,0,0,7.6,3.45l48.07,10a10.35,10.35,0,0,0,2.1.22h0a7.25,7.25,0,0,0,5.76-2.56,8.12,8.12,0,0,0,1.4-6.89"/><path class="cls-2" d="M824.07,207.42l-18.55-23.57a11.11,11.11,0,0,0-8.71-4.6c-4,0-7.59,2.46-9.59,6.6L770,221.61c-2.13,4.4-.92,7.49,0,8.93a7.85,7.85,0,0,0,6.86,3.58,12,12,0,0,0,3.25-.48l39-11a9.3,9.3,0,0,0,4.93-15.2Zm-6.45,9.81-39,11c-3.55,1-5.14-.89-3.53-4.21l17.17-35.77c2-4.16,6-4.59,8.86-1l18.55,23.57C821.71,213.47,820.79,216.33,817.61,217.23Z"/><rect class="cls-2" x="600.31" y="189.88" width="14.41" height="80.1"/><path class="cls-2" d="M626.34,209.93h13.22v5.53c2.82-5.42,10.19-7.48,15.82-7.48a20.26,20.26,0,0,1,16,7.48,11.8,11.8,0,0,1,1.41,1.84,6.59,6.59,0,0,1,1.52-1.84c4.23-5.09,11.06-7.48,17.56-7.48,7,0,13.55,2.06,18.32,7.48,5.53,6,6.18,13,6.18,20.81V270H702V238c0-3.47-.11-8.45-2.17-11.49a10.94,10.94,0,0,0-9-4.44,11.47,11.47,0,0,0-10,5.2c-2.49,3.9-2.28,9.76-2.28,14.09V270H664.16V238c0-3.9,0-7.59-2.27-11.05a11.28,11.28,0,0,0-9.43-4.88c-11.49,0-11.71,10.84-11.71,19.29V270H626.34Z"/><polygon class="cls-2" points="727.11 189.88 741.53 189.88 741.53 209.93 754 209.93 754 222.72 741.53 222.72 741.53 269.97 727.11 269.97 727.11 189.88"/><g class="cls-3"><g class="cls-4"><image width="1280" height="800" transform="translate(1025.06 18.02) scale(0.59)" xlink:href="../Atteli_ja un ne_Folder/Links/113882519.jpg"/></g></g></svg>