<svg xmlns="http://www.w3.org/2000/svg" width="282" height="122" viewBox="0 0 282 122"><g><g><path fill="#d83a3a" d="M145.548 52.813a19.85 19.85 0 0 1-1.731 2.316c-.608.775-1.13 1.449-1.523 2.1-.31.423-.636.87-.956 1.304-2.141 3.55-4.823 7.963-7.704 12.686a70.563 70.563 0 0 1 5.051-2.246.806.806 0 0 1 1.048.462.826.826 0 0 1-.46 1.066c-2.701 1.078-5.17 2.248-7.31 3.447-8.213 13.405-17.49 28.285-20.61 32.206-4.148 5.235-10.331 14.554-14.44 15.327-4.105.763-3.8-4.758-2.047-9.334 2.124-5.547 11.623-21.029 22.27-30.188 1.436-1.24 4.004-3.292 6.15-4.896a13.96 13.96 0 0 1-2.686.468c-.003.002-.007.005-.014.005a9.39 9.39 0 0 1-.48.028h-.24l-.002.005h-.193a11.244 11.244 0 0 1-1.699-.13c-2.58-.489-4.462-1.514-5.604-3.084-1.363-1.858-2.17-3.854-2.437-5.962a14.201 14.201 0 0 1 .023-3.613c.226-1.365.725-2.82 1.141-3.891-1.11.452-2.102.835-2.102.835-1.35.48-2.942.93-4.807 1.346-.269.486-.853 1.538-1.774 3.174-.907 1.65-2.196 3.371-3.866 5.19-1.656 1.793-3.695 3.484-6.079 4.986-2.393 1.523-5.136 2.36-8.273 2.504-2.259.109-4.388-.507-6.407-1.852-1.995-1.361-3.064-3.572-3.214-6.659a15.395 15.395 0 0 1 .918-6.02 15.61 15.61 0 0 1 3.1-5.078c1.355-1.469 2.96-2.664 4.79-3.626a16.083 16.083 0 0 1 5.893-1.727h-.135c-.026-2.503.652-4.66 2.038-6.456 1.382-1.798 3.46-2.773 6.177-2.904 2.358-.111 4.487.67 6.36 2.38 1.88 1.667 2.887 3.862 3.008 6.561.04.873-.016 1.708-.158 2.544a31.99 31.99 0 0 1-.605 2.558c1.854-.086 3.462-.354 4.841-.755 0 0 1.02-.37 2.101-.52a33.388 33.388 0 0 1 4.441-5.677c2.109-2.163 4.108-3.807 5.969-4.967 1.86-1.164 7.758-3.867 7.795-3.49.353-.138.886-.195 1.547-.19a5.215 5.215 0 0 1 1.983.485c.669.314 1.259.743 1.82 1.3.523.58.852 1.246.951 2.005.043.38.045.693.031.975l1.084-1.754a5.51 5.51 0 0 1 1.525-1.594c.615-.39 1.664-.799 3.137-1.183 1.288-.335 2.259-.028 2.9 1.034.656 1.044 1.072 2.206 1.235 3.546.082.772-.063 1.585-.436 2.453zm-49.345 9.33a14.022 14.022 0 0 1-3.864-1.902c-1.222-.853-2.168-2.29-2.815-4.283-2.73.616-5.097 2.142-7.102 4.552-2.03 2.4-2.966 5.154-2.826 8.237.074 1.343.378 2.393.938 3.118.555.75 1.35 1.088 2.396 1.056 1.12-.074 2.307-.475 3.554-1.201 1.26-.725 2.485-1.63 3.705-2.701a30.276 30.276 0 0 0 3.408-3.428zm2.555-8.526c-.454-.673-1.447-1.286-2.022-1.178-.468.091-.551.74-.514 1.322.024.473.214 1.054.571 1.706.372.653 1.654 1.762 1.852 1.652zm23.737 14.673c1.186-1.128 2.472-2.493 3.86-4.13 1.373-1.613 2.756-3.452 4.126-5.467a213.385 213.385 0 0 0 3.857-5.863l2.39-3.872c-.676.094-6.596 2.76-8.034 3.414-.35.246-1.15.76-2.443 1.551-1.278.787-2.634 1.802-4.051 3.06a18.195 18.195 0 0 0-3.68 4.39c-1.04 1.681-1.437 3.51-1.178 5.53.123 1.135.372 1.987.787 2.5.397.538.781.777 1.163.731zm-.193 11.485c-.94.967-1.885 1.924-2.762 2.816l-.46.474c-.542.555-1.05 1.068-1.512 1.529-3.334 3.494-6.22 7.391-7.495 9.187-6.206 9.025-10.748 18.411-11.364 21.197 0 0 2.906-3.756 6.682-8.872l.007-.038s7.313-10.342 11.323-16.729zM80.317 44.132c-1.736 3.647-3.996 8.051-6.85 13.188-2.842 5.148-4.903 10.156-7.704 15.021-2.794 4.86-9.382 20.137-9.382 20.137-.269.293-.488.453-.685.453-.462.02-2.37-.202-2.395-.689l-.007-.272c-.021-.289.362-1.981 1.152-4.52.777-2.543 1.855-5.734 3.228-9.544 1.378-3.842 3.084-8.106 5.089-12.823a270.906 270.906 0 0 1 6.5-14.207c-2.823 2.54-5.822 5.5-9.032 8.82-3.21 3.354-6.245 6.53-9.134 9.557a206.5 206.5 0 0 1-7.65 7.674c-2.226 2.088-3.76 3.156-4.615 3.192-.292.016-.476-.14-.652-.397-1.332-1.967-.604-11.288-.145-16.35.345-3.855 1.16-9.192 1.856-13.655a340.404 340.404 0 0 0 1.736-12.803c-2.012 3.551-24.335 46.925-34.68 67.128-.976 1.9-1.969 2.04-3.295 1.83-1.567-.242-2.312-.693-3.335-1.709-.835-.822.183-2.503.715-3.534 10.75-20.89 20.741-40.985 21.827-43.166 2.352-4.625 4.732-9.397 7.214-14.293 2.463-4.881 4.784-9.43 6.959-13.64a744.78 744.78 0 0 0 5.453-10.743c1.462-2.953 2.228-4.723 2.315-5.312-.055-.673.515-.977 1.659-.944 1.222-.054 2.422.071 3.553.403 1.159.336 1.756.83 1.801 1.5-.079.78-.137 1.522-.205 2.248-.042.725-.17 1.781-.34 3.138-.189 1.343-.417 3.174-.73 5.518-.321 2.34-.766 5.443-1.356 9.304-.425 2.92-1.048 6.388-1.833 10.36-.81 4.007-1.772 8.016-2.833 12.062a215.376 215.376 0 0 0-2.815 11.432 496.296 496.296 0 0 0-1.61 7.405c-.056.245.042.472.142.343 1.086-1.337 2.762-3.362 5.014-6.122 2.459-3.027 5.2-6.416 8.184-10.227a812.499 812.499 0 0 0 9.232-11.938 841.419 841.419 0 0 0 8.686-11.622c2.628-3.618 4.764-6.734 6.44-9.414 1.674-2.691 2.485-4.47 2.452-5.337-.02-.38.282-.653.95-.837.653-.183 1.45-.29 2.392-.324 1.144-.071 2.26.016 3.365.268 1.087.24 1.656.674 1.694 1.359.027.565-.079 1.362-.314 2.398-.241 1.015-.675 2.395-1.3 4.1-.625 1.725-1.515 3.843-2.61 6.352zM281.266 4.73a7194.756 7194.756 0 0 1-10.706 14.66c-2.683 3.606-6.357 8.576-11.099 14.93-4.71 6.345-10.8 14.708-18.27 25.083-.712 1-1.484 2.18-2.328 3.523-.817 1.337-1.333 2.265-1.503 2.736a50.923 50.923 0 0 0 8.249-3.066c2.575-1.23 4.837-2.45 6.775-3.66a150.954 150.954 0 0 0 4.77-3.05c1.23-.817 1.988-1.287 2.262-1.395.472-.216.813-.216 1.079.019.24.216.178.599-.178 1.088a391.325 391.325 0 0 0-5.032 4.35 77.276 77.276 0 0 1-6.032 4.79c-2.115 1.488-4.252 2.777-6.407 3.845-2.2 1.075-4.27 1.653-6.243 1.76-1.598.07-2.78-.505-3.494-1.723-.73-1.214-1.062-2.303-1.012-3.266.001-.11.017-.212.028-.317-.015.01-.027.016-.04.027-2.31 1.454-4.955 2.83-7.964 4.068-3.03 1.247-6.274 1.957-9.767 2.135-2.37.11-4.844-.2-7.419-.925-1.642-.417-2.957-1.452-3.991-3.136-.831-1.37-1.335-2.766-1.546-4.165a81.579 81.579 0 0 1-2.269 1.66 76.905 76.905 0 0 1-6.816 4.318c-2.456 1.379-4.74 2.41-6.875 3.139-2.166.743-4.029.978-5.584.727-1.57-.27-2.497-1.308-2.776-3.14-.637-1.488-.378-3.627.753-6.386.797-1.875 1.77-3.866 2.903-5.946-1.68.839-3.988 1.588-6.965 2.245-.268.489-.847 1.563-1.766 3.193-.895 1.638-2.218 3.36-3.884 5.173-1.653 1.814-3.686 3.486-6.067 5.007-2.398 1.502-5.168 2.334-8.266 2.484-2.263.108-4.4-.506-6.396-1.853-2.007-1.359-3.093-3.571-3.245-6.642-.091-2.1.225-4.13.929-6.038a15.437 15.437 0 0 1 3.108-5.079 17.192 17.192 0 0 1 4.792-3.61c1.846-.98 3.824-1.538 5.872-1.74h-.135c-.014-2.502.669-4.644 2.06-6.458 1.37-1.795 3.437-2.78 6.17-2.899 2.352-.111 4.483.668 6.353 2.351 1.893 1.708 2.88 3.905 3.006 6.59.043.872 0 1.704-.16 2.538a34.694 34.694 0 0 1-.58 2.558c1.966-.11 3.689-.382 5.145-.817.885-.293 1.565-.48 2.087-.6 1.77-2.948 3.638-5.87 5.613-8.738a230.204 230.204 0 0 0 5.179-7.787c-7.9.39-12.069.45-12.461.207l.118.103c-.086.017-.14-.035-.142-.124a5.723 5.723 0 0 1-1.19-1.255c-.314-.454-.602-1.035-.88-1.686-.264-.655-.404-1.379-.441-2.143-.037-.87.767-1.485 2.386-1.85 1.659-.363 3.584-.632 5.8-.796a73.468 73.468 0 0 1 6.662-.164c2.22.038 3.866.017 4.893-.016a183.36 183.36 0 0 1 2.843-4.356c.755-1.089 1.415-1.978 1.925-2.687.54-.687 1.037-1.176 1.503-1.45a3.483 3.483 0 0 1 1.555-.42c.103 0 .423 0 .975.025a8.184 8.184 0 0 1 1.802.266 7.535 7.535 0 0 1 1.645.638c.491.269.76.638.788 1.125.033.581-.412 1.377-1.314 2.448-.895 1.053-1.825 2.411-2.787 4.098 3.207-.145 6.753.674 11.565.817 4.786.161 9.156.346 13.089.531 3.916.193 7.224.353 9.884.45 2.655.13 4.25.163 4.822.149.864.049 1.3.269 1.308.648.026.494-.097.727-.391.745-1.313.254-3.376.526-6.22.797-2.806.29-6.155.58-10.024.853-3.853.292-8.14.546-12.817.759-4.667.235-11.153 1.637-15.689 1.854a51.638 51.638 0 0 1-2.508 3.808c-1.001 1.343-1.998 2.867-3.05 4.554a77.288 77.288 0 0 1-3.267 4.696 606.75 606.75 0 0 0-4.013 5.481 207.57 207.57 0 0 0-4.051 5.772c-1.337 1.935-2.424 3.838-3.278 5.708-.17.492-.296.8-.394.895.223.581.978.704 2.3.395 1.31-.307 2.882-.89 4.74-1.761a95.881 95.881 0 0 0 5.826-2.936 254.696 254.696 0 0 0 5.61-3.176c.287-.164.55-.32.815-.475.278-1.277.778-2.669 1.576-4.186 1.318-2.468 3.062-4.898 5.291-7.272 2.19-2.377 4.703-4.424 7.525-6.15 2.783-1.724 5.651-2.707 8.572-2.958 2.254-.18 4.044.474 5.355 1.993 1.292 1.543 1.725 3.552 1.27 6.078-.63 2.722-1.727 4.99-3.3 6.749-1.56 1.76-3.257 3.173-5.053 4.208-1.793 1.049-3.587 1.798-5.37 2.216-1.776.433-3.184.672-4.216.706-.846.055-1.834.055-2.921 0-1.091-.034-1.891-.493-2.378-1.324-.484.4-.733.87-.742 1.41a20.251 20.251 0 0 0-.01 1.51c.081 1.361 1.017 2.321 2.77 2.901 1.793.595 3.72.838 5.806.723 3.677-.181 7.035-.847 10.117-2.082 3.056-1.197 5.699-2.486 7.911-3.844l.38-.245c.186-.324.373-.65.555-.954a238.141 238.141 0 0 1 6.86-11.246 299.466 299.466 0 0 1 7.555-11.194 893.872 893.872 0 0 1 7.456-10.43c2.415-3.284 4.598-6.24 6.547-8.837.728-.965 5.757-7.846 11.869-16.216.488-.663 1.98-1.634 3.561-1.31 1.115.227 1.614.68 2.7 1.46zm-68.727 48.999c.474-.042 1.15-.11 2.042-.253.896-.129 1.85-.419 2.882-.852 1.009-.455 2.06-1.088 3.154-1.964 1.095-.886 2.041-2.1 2.807-3.678-1.488.452-3.217 1.268-5.202 2.424zm-46.761 5.023a14.428 14.428 0 0 1-3.859-1.904c-1.227-.889-2.154-2.302-2.813-4.28-2.72.61-5.086 2.12-7.12 4.536-2.012 2.394-2.946 5.153-2.813 8.232.08 1.344.39 2.375.934 3.14.57.727 1.352 1.087 2.404 1.035 1.133-.077 2.309-.458 3.556-1.202 1.256-.726 2.482-1.629 3.715-2.7a32.038 32.038 0 0 0 3.38-3.43zm2.841-6.007c.074-4.541-2.32-3.717-2.32-3.717-.336.31-.521.746-.495 1.343.024.473.213 1.052.584 1.688.362.653.974 1.214 1.84 1.653zm80.528 31.864c0 2.043-1.313 3.306-3.433 3.306h-1.223v3.36h-1.971V81.49h3.067zm-2.005.11c0-.97-.674-1.571-1.754-1.571h-.897v3.112h.85zm-10.385-3.229h1.99v5.659c0 1.439-.3 2.438-.95 3.17-.651.733-1.658 1.144-2.783 1.144-1.167 0-2.234-.436-2.912-1.217-.618-.704-.862-1.581-.862-3.097V81.49h1.968v5.734c0 .911.117 1.41.441 1.789.28.367.797.603 1.336.603.565 0 1.108-.26 1.397-.672.29-.396.375-.826.375-1.733zm-8.09 1.644c.819.938 1.221 2.066 1.221 3.493 0 2.788-2.194 5.032-4.908 5.032-2.82 0-5.02-2.217-5.02-5.032 0-2.904 2.19-5.137 5.044-5.137zm-.78 3.51c0-1.9-1.243-3.287-2.94-3.287-1.702 0-2.97 1.373-2.97 3.242 0 1.819 1.281 3.209 2.955 3.209zm-12.035.875l2.652 3.761h-2.388l-2.638-3.89v3.89H211.5v-9.79h2.97c2.38 0 3.66 1.071 3.66 3.081zm.272-2.85c0-.935-.6-1.52-1.579-1.52h-1.067v3.062h.893zm-10.832 1.311h4.813v.527c0 1.508-.438 2.643-1.398 3.64-.966.983-2.19 1.512-3.545 1.512-2.823 0-4.942-2.173-4.942-5.06 0-2.924 2.1-5.109 4.923-5.109 1.557 0 2.956.678 3.894 1.88l-1.48 1.185c-.711-.848-1.417-1.216-2.37-1.216-1.682 0-2.961 1.407-2.961 3.26 0 1.819 1.32 3.234 3.008 3.234.822 0 1.645-.363 2.145-.975.288-.341.434-.648.594-1.234h-2.681zm-22.84 3.64h3.214v1.656h-5.186V81.49h1.973zm-10.432-8.13h5.348v1.638h-3.372v2.413h3.372v1.639h-3.372v2.449h3.372v1.647h-5.348zm-8.46 0h6.545v1.638h-2.276v8.144h-1.976v-8.144h-2.293zm-2.579 1.644c.825.938 1.228 2.066 1.228 3.493 0 2.788-2.192 5.032-4.913 5.032-2.815 0-5.016-2.217-5.016-5.032 0-2.904 2.19-5.137 5.04-5.137zm-.773 3.51c0-1.9-1.244-3.287-2.942-3.287-1.7 0-2.97 1.373-2.97 3.242 0 1.819 1.283 3.209 2.953 3.209zm-10.89-5.154h1.932v9.987h-1.932V87.39h-3.562v4.087h-1.936V81.49h1.936v4.22h3.562z"/></g></g></svg>