<svg width="29" height="15" viewBox="0 0 29 15" fill="none" xmlns="http://www.w3.org/2000/svg">
<path d="M14.4998 14.3333C14.0423 14.3342 13.5988 14.1749 13.2465 13.8829L1.49652 4.09126C1.09659 3.75886 0.845093 3.2812 0.797349 2.76336C0.749606 2.24553 0.909527 1.72993 1.24193 1.33001C1.57434 0.930086 2.052 0.678589 2.56983 0.630845C3.08767 0.583102 3.60326 0.743022 4.00318 1.07543L14.4998 9.84876L24.9965 1.38876C25.1968 1.22609 25.4273 1.10461 25.6747 1.03131C25.9221 0.958004 26.1816 0.93432 26.4382 0.961618C26.6948 0.988916 26.9435 1.06666 27.1699 1.19037C27.3964 1.31409 27.5962 1.48134 27.7578 1.68251C27.9371 1.88387 28.0729 2.1201 28.1567 2.37639C28.2405 2.63268 28.2705 2.90352 28.2448 3.17194C28.219 3.44035 28.1381 3.70056 28.0072 3.93626C27.8762 4.17196 27.6979 4.37807 27.4836 4.54168L15.7336 14.0004C15.3711 14.2462 14.9368 14.3634 14.4998 14.3333V14.3333Z" fill="black"/>
</svg>
