<svg width="50" height="50" viewBox="0 0 50 50" fill="none" xmlns="http://www.w3.org/2000/svg">
<path d="M46.7771 4.00627C47.0697 4.29924 47.234 4.69638 47.234 5.11044C47.234 5.52451 47.0697 5.92164 46.7771 6.21461L32.3438 20.65C34.1129 22.956 34.9836 25.8265 34.7935 28.7268C34.6034 31.627 33.3655 34.3593 31.3104 36.4146L29.5771 38.1479L23.7708 46.8563C23.6427 47.0486 23.4735 47.2101 23.2755 47.3292C23.0774 47.4482 22.8554 47.5218 22.6254 47.5448C22.3955 47.5677 22.1633 47.5393 21.9456 47.4617C21.728 47.3841 21.5302 47.2591 21.3667 47.0959L3.6875 29.4167C3.52425 29.2531 3.39931 29.0554 3.32168 28.8377C3.24406 28.6201 3.21568 28.3879 3.2386 28.1579C3.26151 27.928 3.33515 27.706 3.45421 27.5079C3.57326 27.3098 3.73477 27.1406 3.92709 27.0125L12.6354 21.2063L14.3688 19.4729C16.4241 17.4179 19.1563 16.18 22.0566 15.9899C24.9569 15.7998 27.8273 16.6704 30.1333 18.4396L44.5688 4.00627C44.8617 3.71367 45.2589 3.54932 45.6729 3.54932C46.087 3.54932 46.4841 3.71367 46.7771 4.00627V4.00627ZM15.8417 22.4209L28.3625 34.9417L29.1 34.2063C30.7285 32.5393 31.6343 30.2976 31.6207 27.9672C31.6071 25.6368 30.6754 23.4058 29.0275 21.7579C27.3797 20.1101 25.1486 19.1783 22.8182 19.1648C20.4879 19.1512 18.2461 20.0569 16.5792 21.6854L15.8417 22.4209V22.4209ZM13.4333 24.4313L7.24584 28.5563L22.2271 43.5375L26.3521 37.35L13.4333 24.4313V24.4313Z" fill="black"/>
</svg>
