<svg width="56" height="60" viewBox="0 0 56 60" fill="none" xmlns="http://www.w3.org/2000/svg">
<g clip-path="url(#clip0_1_185)">
<path d="M55.1683 4.77802C55.5007 5.11092 55.6875 5.56217 55.6875 6.03267C55.6875 6.50316 55.5007 6.95442 55.1683 7.28731L38.7679 23.69C40.7782 26.3103 41.7675 29.572 41.5515 32.8675C41.3355 36.163 39.9289 39.2676 37.5938 41.603L35.6242 43.5726L29.0267 53.4677C28.8811 53.6862 28.6888 53.8698 28.4638 54.005C28.2387 54.1403 27.9865 54.224 27.7252 54.25C27.4639 54.2761 27.2001 54.2438 26.9527 54.1556C26.7054 54.0674 26.4807 53.9255 26.2949 53.74L6.20634 33.6514C6.02083 33.4656 5.87887 33.2409 5.79066 32.9936C5.70246 32.7462 5.67021 32.4824 5.69625 32.2211C5.72229 31.9598 5.80596 31.7076 5.94124 31.4825C6.07652 31.2575 6.26004 31.0652 6.47857 30.9196L16.3737 24.3221L18.3432 22.3525C20.6787 20.0174 23.7833 18.6108 27.0788 18.3948C30.3743 18.1788 33.636 19.1681 36.2563 21.1784L52.659 4.77802C52.9919 4.44554 53.4431 4.25879 53.9136 4.25879C54.3841 4.25879 54.8354 4.44554 55.1683 4.77802V4.77802ZM20.0169 25.7022L34.2441 39.9294L35.0821 39.0937C36.9326 37.1996 37.9617 34.6524 37.9463 32.0044C37.9309 29.3565 36.8722 26.8213 34.9997 24.9489C33.1273 23.0765 30.5922 22.0178 27.9442 22.0023C25.2963 21.9869 22.749 23.0161 20.8549 24.8665L20.0169 25.7022V25.7022ZM17.2804 27.9866L10.2496 32.6738L27.2725 49.6967L31.9597 42.6659L17.2804 27.9866Z" fill="black"/>
</g>
<defs>
<clipPath id="clip0_1_185">
<rect width="55.0781" height="60" fill="white" transform="translate(0.6875)"/>
</clipPath>
</defs>
</svg>
