<svg width="50" height="50" viewBox="0 0 50 50" fill="none" xmlns="http://www.w3.org/2000/svg">
<path d="M6.24999 16.6666H20.8333C22.0695 16.6666 23.2778 16.3001 24.3056 15.6133C25.3334 14.9266 26.1345 13.9504 26.6076 12.8084C27.0806 11.6664 27.2044 10.4097 26.9632 9.19731C26.7221 7.98493 26.1268 6.87129 25.2527 5.99721C24.3787 5.12313 23.265 4.52788 22.0526 4.28672C20.8403 4.04556 19.5836 4.16933 18.4416 4.64238C17.2995 5.11543 16.3234 5.91651 15.6366 6.94431C14.9499 7.97212 14.5833 9.1805 14.5833 10.4166M8.33332 33.3333H31.25C32.4861 33.3333 33.6945 33.6998 34.7223 34.3866C35.7501 35.0734 36.5512 36.0495 37.0242 37.1915C37.4973 38.3336 37.6211 39.5902 37.3799 40.8026C37.1387 42.015 36.5435 43.1286 35.6694 44.0027C34.7953 44.8768 33.6817 45.472 32.4693 45.7132C31.2569 45.9544 30.0003 45.8306 28.8582 45.3575C27.7162 44.8845 26.7401 44.0834 26.0533 43.0556C25.3665 42.0278 25 40.8194 25 39.5833M4.16666 25H39.5833C40.8195 25 42.0278 24.6334 43.0556 23.9466C44.0834 23.2599 44.8845 22.2838 45.3576 21.1417C45.8306 19.9997 45.9544 18.743 45.7132 17.5306C45.4721 16.3183 44.8768 15.2046 44.0027 14.3305C43.1287 13.4565 42.015 12.8612 40.8026 12.6201C39.5903 12.3789 38.3336 12.5027 37.1916 12.9757C36.0495 13.4488 35.0734 14.2498 34.3866 15.2776C33.6999 16.3055 33.3333 17.5138 33.3333 18.75" stroke="black" stroke-width="4.16667" stroke-linecap="round" stroke-linejoin="round"/>
</svg>
