<svg width="61" height="60" viewBox="0 0 61 60" fill="none" xmlns="http://www.w3.org/2000/svg">
<path d="M8.1875 20H25.6875C27.1709 20 28.6209 19.5601 29.8543 18.736C31.0876 17.9119 32.0489 16.7406 32.6166 15.3701C33.1843 13.9997 33.3328 12.4917 33.0434 11.0368C32.754 9.58197 32.0397 8.2456 30.9908 7.1967C29.9419 6.14781 28.6055 5.4335 27.1507 5.14411C25.6958 4.85472 24.1878 5.00325 22.8174 5.57091C21.4469 6.13856 20.2756 7.09986 19.4515 8.33323C18.6274 9.5666 18.1875 11.0166 18.1875 12.5" stroke="black" stroke-width="3.3" stroke-linecap="round" stroke-linejoin="round"/>
<path d="M10.6875 40H38.1875C39.6709 40 41.1209 40.4399 42.3543 41.264C43.5876 42.0881 44.5489 43.2594 45.1166 44.6299C45.6843 46.0003 45.8328 47.5083 45.5434 48.9632C45.254 50.418 44.5397 51.7544 43.4908 52.8033C42.4419 53.8522 41.1055 54.5665 39.6507 54.8559C38.1958 55.1453 36.6878 54.9968 35.3174 54.4291C33.9469 53.8614 32.7756 52.9001 31.9515 51.6668C31.1274 50.4334 30.6875 48.9834 30.6875 47.5" stroke="black" stroke-width="3.3" stroke-linecap="round" stroke-linejoin="round"/>
<path d="M5.6875 30H48.1875C49.6709 30 51.1209 29.5601 52.3543 28.736C53.5876 27.9119 54.5489 26.7406 55.1166 25.3701C55.6843 23.9997 55.8328 22.4917 55.5434 21.0368C55.254 19.582 54.5397 18.2456 53.4908 17.1967C52.4419 16.1478 51.1055 15.4335 49.6507 15.1441C48.1958 14.8547 46.6878 15.0032 45.3174 15.5709C43.9469 16.1386 42.7756 17.0999 41.9515 18.3332C41.1274 19.5666 40.6875 21.0166 40.6875 22.5" stroke="black" stroke-width="3.3" stroke-linecap="round" stroke-linejoin="round"/>
</svg>
