<svg width="50" height="50" viewBox="0 0 50 50" fill="none" xmlns="http://www.w3.org/2000/svg">
<path d="M20.8333 21.875V16.6666M25 45.8333C36.5062 45.8333 45.8333 36.5062 45.8333 25C45.8333 13.4937 36.5062 4.16663 25 4.16663C13.4938 4.16663 4.16667 13.4937 4.16667 25C4.16667 36.5062 13.4938 45.8333 25 45.8333ZM29.1667 21.875V16.6666V21.875Z" stroke="black" stroke-width="4.16667" stroke-linecap="round" stroke-linejoin="round"/>
<path d="M25 45.8333V33.3333M25 33.3333C27.2101 33.3333 29.3298 32.4554 30.8926 30.8926C32.4554 29.3298 33.3333 27.2101 33.3333 25V21.875H16.6667V25C16.6667 27.2101 17.5446 29.3298 19.1074 30.8926C20.6702 32.4554 22.7899 33.3333 25 33.3333Z" stroke="black" stroke-width="4.16667" stroke-linecap="round" stroke-linejoin="round"/>
</svg>
