<svg width="54" height="54" viewBox="0 0 54 54" fill="none" xmlns="http://www.w3.org/2000/svg">
<path d="M27 51.9765C40.8075 51.9765 52 40.9156 52 27.2706C52 13.6255 40.8075 2.5647 27 2.5647C13.1925 2.5647 2 13.6255 2 27.2706C2 40.9156 13.1925 51.9765 27 51.9765Z" stroke="black" stroke-width="3.5" stroke-linecap="round" stroke-linejoin="round"/>
<path d="M32 23.5647V17.3882" stroke="black" stroke-width="3.5" stroke-linecap="round" stroke-linejoin="round"/>
<path d="M22 23.5647V17.3882" stroke="black" stroke-width="3.5" stroke-linecap="round" stroke-linejoin="round"/>
<path d="M27 37.1529C29.6522 37.1529 32.1957 36.1118 34.0711 34.2585C35.9464 32.4052 37 29.8915 37 27.2706V23.5647H17V27.2706C17 29.8915 18.0536 32.4052 19.9289 34.2585C21.8043 36.1118 24.3478 37.1529 27 37.1529Z" stroke="black" stroke-width="3.5" stroke-linecap="round" stroke-linejoin="round"/>
<path d="M27 51.9764V37.1528" stroke="black" stroke-width="3.5" stroke-linecap="round" stroke-linejoin="round"/>
</svg>
