<svg width="51" height="51" viewBox="0 0 51 51" fill="none" xmlns="http://www.w3.org/2000/svg">
<mask id="path-1-inside-1_35_126" fill="white">
<path d="M32.4727 1.72208L32.2551 1.52708C31.7742 1.14747 31.1707 0.957621 30.559 0.993568C29.9474 1.02951 29.3702 1.28876 28.9371 1.72208L28.7421 1.93958C28.3626 2.42 28.1728 3.02305 28.2087 3.63418C28.2447 4.24532 28.5039 4.82196 28.9371 5.25458L32.1851 8.49708H18.1878L17.5877 8.50708C13.0546 8.66134 8.75861 10.5698 5.60569 13.8299C2.45277 17.0901 0.689413 21.4471 0.6875 25.9821C0.6875 29.5946 1.78268 32.9521 3.66048 35.7296C4.0461 36.2686 4.6301 36.6324 5.28401 36.741C5.93791 36.8495 6.60816 36.6939 7.1473 36.3083C7.68644 35.9228 8.05031 35.3389 8.15886 34.6851C8.26742 34.0313 8.11176 33.3611 7.72614 32.8221L7.38859 32.2771C6.28184 30.3783 5.69569 28.2211 5.68931 26.0234C5.68292 23.8257 6.25652 21.6651 7.35221 19.7599C8.4479 17.8547 10.0269 16.2722 11.9298 15.1721C13.8327 14.0721 15.9922 13.4934 18.1903 13.4946H32.1801L28.9371 16.7371L28.7421 16.9546C28.336 17.4538 28.1384 18.0904 28.1903 18.7318C28.2422 19.3731 28.5397 19.9696 29.0207 20.3971C29.5017 20.8245 30.1292 21.0498 30.7723 21.0261C31.4154 21.0023 32.0245 20.7313 32.4727 20.2696L39.9889 12.7621L40.1814 12.5446C40.5609 12.0642 40.7507 11.4611 40.7147 10.85C40.6788 10.2388 40.4196 9.6622 39.9864 9.22958L32.4727 1.72208V1.72208ZM47.6626 16.1496C47.3424 15.7387 46.9017 15.4382 46.4022 15.2902C45.9028 15.1421 45.3695 15.154 44.8771 15.3239C44.3846 15.4939 43.9577 15.8136 43.656 16.2383C43.3542 16.6629 43.1929 17.1712 43.1944 17.6921C43.1944 18.2146 43.3544 18.6971 43.6245 19.0946C44.8677 20.9776 45.5777 23.1621 45.6791 25.4161C45.7804 27.6701 45.2693 29.9095 44.2 31.8964C43.1308 33.8833 41.5433 35.5436 39.6061 36.701C37.6689 37.8583 35.4544 38.4695 33.1978 38.4696H19.2255L22.461 35.2446L22.6686 35.0046C23.0091 34.5636 23.1926 34.0216 23.1898 33.4645C23.1871 32.9074 22.9984 32.3672 22.6536 31.9296L22.461 31.7096L22.2235 31.4996C21.7819 31.1583 21.2388 30.9744 20.6807 30.9771C20.1225 30.9798 19.5813 31.169 19.143 31.5146L18.923 31.7096L11.4092 39.2171L11.2017 39.4546C10.8606 39.8957 10.6767 40.4383 10.6795 40.9959C10.6822 41.5536 10.8713 42.0943 11.2167 42.5321L11.4092 42.7496L18.923 50.2571L19.1605 50.4671C19.6432 50.8399 20.2456 51.0234 20.8543 50.9831C21.4629 50.9428 22.0359 50.6814 22.4652 50.2481C22.8945 49.8149 23.1506 49.2397 23.1853 48.6308C23.22 48.0219 23.0309 47.4213 22.6536 46.9421L22.461 46.7246L19.2005 43.4671H33.1928L33.7929 43.4596C36.9202 43.3522 39.9615 42.4081 42.5998 40.7257C45.2381 39.0433 47.3768 36.6843 48.7931 33.8944C50.2093 31.1044 50.8512 27.9858 50.652 24.8635C50.4527 21.7411 49.4195 18.7294 47.6601 16.1421V16.1496H47.6626Z"/>
</mask>
<path d="M32.4727 1.72208L32.2551 1.52708C31.7742 1.14747 31.1707 0.957621 30.559 0.993568C29.9474 1.02951 29.3702 1.28876 28.9371 1.72208L28.7421 1.93958C28.3626 2.42 28.1728 3.02305 28.2087 3.63418C28.2447 4.24532 28.5039 4.82196 28.9371 5.25458L32.1851 8.49708H18.1878L17.5877 8.50708C13.0546 8.66134 8.75861 10.5698 5.60569 13.8299C2.45277 17.0901 0.689413 21.4471 0.6875 25.9821C0.6875 29.5946 1.78268 32.9521 3.66048 35.7296C4.0461 36.2686 4.6301 36.6324 5.28401 36.741C5.93791 36.8495 6.60816 36.6939 7.1473 36.3083C7.68644 35.9228 8.05031 35.3389 8.15886 34.6851C8.26742 34.0313 8.11176 33.3611 7.72614 32.8221L7.38859 32.2771C6.28184 30.3783 5.69569 28.2211 5.68931 26.0234C5.68292 23.8257 6.25652 21.6651 7.35221 19.7599C8.4479 17.8547 10.0269 16.2722 11.9298 15.1721C13.8327 14.0721 15.9922 13.4934 18.1903 13.4946H32.1801L28.9371 16.7371L28.7421 16.9546C28.336 17.4538 28.1384 18.0904 28.1903 18.7318C28.2422 19.3731 28.5397 19.9696 29.0207 20.3971C29.5017 20.8245 30.1292 21.0498 30.7723 21.0261C31.4154 21.0023 32.0245 20.7313 32.4727 20.2696L39.9889 12.7621L40.1814 12.5446C40.5609 12.0642 40.7507 11.4611 40.7147 10.85C40.6788 10.2388 40.4196 9.6622 39.9864 9.22958L32.4727 1.72208V1.72208ZM47.6626 16.1496C47.3424 15.7387 46.9017 15.4382 46.4022 15.2902C45.9028 15.1421 45.3695 15.154 44.8771 15.3239C44.3846 15.4939 43.9577 15.8136 43.656 16.2383C43.3542 16.6629 43.1929 17.1712 43.1944 17.6921C43.1944 18.2146 43.3544 18.6971 43.6245 19.0946C44.8677 20.9776 45.5777 23.1621 45.6791 25.4161C45.7804 27.6701 45.2693 29.9095 44.2 31.8964C43.1308 33.8833 41.5433 35.5436 39.6061 36.701C37.6689 37.8583 35.4544 38.4695 33.1978 38.4696H19.2255L22.461 35.2446L22.6686 35.0046C23.0091 34.5636 23.1926 34.0216 23.1898 33.4645C23.1871 32.9074 22.9984 32.3672 22.6536 31.9296L22.461 31.7096L22.2235 31.4996C21.7819 31.1583 21.2388 30.9744 20.6807 30.9771C20.1225 30.9798 19.5813 31.169 19.143 31.5146L18.923 31.7096L11.4092 39.2171L11.2017 39.4546C10.8606 39.8957 10.6767 40.4383 10.6795 40.9959C10.6822 41.5536 10.8713 42.0943 11.2167 42.5321L11.4092 42.7496L18.923 50.2571L19.1605 50.4671C19.6432 50.8399 20.2456 51.0234 20.8543 50.9831C21.4629 50.9428 22.0359 50.6814 22.4652 50.2481C22.8945 49.8149 23.1506 49.2397 23.1853 48.6308C23.22 48.0219 23.0309 47.4213 22.6536 46.9421L22.461 46.7246L19.2005 43.4671H33.1928L33.7929 43.4596C36.9202 43.3522 39.9615 42.4081 42.5998 40.7257C45.2381 39.0433 47.3768 36.6843 48.7931 33.8944C50.2093 31.1044 50.8512 27.9858 50.652 24.8635C50.4527 21.7411 49.4195 18.7294 47.6601 16.1421V16.1496H47.6626Z" fill="black"/>
<path d="M32.2551 1.52708L32.5889 1.15477L32.5772 1.14432L32.5649 1.13462L32.2551 1.52708ZM28.9371 1.72208L28.5834 1.36862L28.5739 1.3782L28.5648 1.38828L28.9371 1.72208ZM28.7421 1.93958L28.3698 1.60578L28.3594 1.6174L28.3497 1.62965L28.7421 1.93958ZM28.9371 5.25458L28.5838 5.60838L28.5838 5.60844L28.9371 5.25458ZM32.1851 8.49708V8.99708H33.3937L32.5384 8.14323L32.1851 8.49708ZM18.1878 8.49708V7.99701L18.1795 7.99715L18.1878 8.49708ZM17.5877 8.50708L17.5794 8.00708L17.5707 8.00737L17.5877 8.50708ZM0.6875 25.9821L0.1875 25.9819V25.9821H0.6875ZM3.66048 35.7296L3.24612 36.0097L3.25382 36.0205L3.66048 35.7296ZM7.72614 32.8221L7.30107 33.0854L7.30982 33.0995L7.31948 33.113L7.72614 32.8221ZM7.38859 32.2771L6.95645 32.529L6.96351 32.5404L7.38859 32.2771ZM18.1903 13.4946L18.1901 13.9946H18.1903V13.4946ZM32.1801 13.4946L32.5336 13.8482L33.3874 12.9946H32.1801V13.4946ZM28.9371 16.7371L28.5836 16.3835L28.5739 16.3931L28.5648 16.4033L28.9371 16.7371ZM28.7421 16.9546L28.3698 16.6208L28.3618 16.6297L28.3541 16.6391L28.7421 16.9546ZM32.4727 20.2696L32.1193 19.9158L32.1139 19.9213L32.4727 20.2696ZM39.9889 12.7621L40.3422 13.1158L40.3531 13.105L40.3633 13.0935L39.9889 12.7621ZM40.1814 12.5446L40.5558 12.876L40.5651 12.8655L40.5738 12.8545L40.1814 12.5446ZM39.9864 9.22958L39.633 9.58328L39.6331 9.58337L39.9864 9.22958ZM47.6626 16.1496V16.6496H48.6862L48.057 15.8422L47.6626 16.1496ZM43.1944 17.6921H43.6944L43.6944 17.6906L43.1944 17.6921ZM43.6245 19.0946L44.0418 18.8191L44.0381 18.8136L43.6245 19.0946ZM33.1978 38.4696V38.9696H33.1978L33.1978 38.4696ZM19.2255 38.4696L18.8725 38.1155L18.0156 38.9696H19.2255V38.4696ZM22.461 35.2446L22.814 35.5987L22.8271 35.5856L22.8392 35.5716L22.461 35.2446ZM22.6686 35.0046L23.0468 35.3316L23.0558 35.3212L23.0643 35.3102L22.6686 35.0046ZM22.6536 31.9296L23.0463 31.6201L23.0383 31.61L23.0298 31.6003L22.6536 31.9296ZM22.461 31.7096L22.8373 31.3803L22.8162 31.3562L22.7922 31.335L22.461 31.7096ZM22.2235 31.4996L22.5547 31.125L22.5423 31.114L22.5292 31.104L22.2235 31.4996ZM19.143 31.5146L18.8334 31.122L18.8221 31.1309L18.8114 31.1404L19.143 31.5146ZM18.923 31.7096L18.5913 31.3354L18.5801 31.3453L18.5696 31.3559L18.923 31.7096ZM11.4092 39.2171L11.0558 38.8634L11.0439 38.8753L11.0327 38.8881L11.4092 39.2171ZM11.2017 39.4546L10.8252 39.1256L10.8153 39.1369L10.8062 39.1487L11.2017 39.4546ZM11.2167 42.5321L10.8242 42.8418L10.8329 42.8529L10.8423 42.8635L11.2167 42.5321ZM11.4092 42.7496L11.0349 43.081L11.045 43.0925L11.0558 43.1033L11.4092 42.7496ZM18.923 50.2571L18.5696 50.6108L18.5803 50.6216L18.5918 50.6317L18.923 50.2571ZM19.1605 50.4671L18.8293 50.8417L18.8417 50.8527L18.8549 50.8628L19.1605 50.4671ZM22.6536 46.9421L23.0464 46.6328L23.0375 46.6215L23.028 46.6107L22.6536 46.9421ZM22.461 46.7246L22.8354 46.3932L22.8253 46.3817L22.8144 46.3709L22.461 46.7246ZM19.2005 43.4671V42.9671H17.9926L18.8471 43.8208L19.2005 43.4671ZM33.1928 43.4671V43.9671L33.199 43.967L33.1928 43.4671ZM33.7929 43.4596L33.7991 43.9597L33.81 43.9593L33.7929 43.4596ZM47.6601 16.1421L48.0736 15.8609L47.1601 14.5176V16.1421H47.6601ZM47.6601 16.1496H47.1601V16.6496H47.6601V16.1496ZM32.8064 1.34977L32.5889 1.15477L31.9214 1.89939L32.1389 2.09439L32.8064 1.34977ZM32.5649 1.13462C31.9879 0.679102 31.2636 0.451296 30.5297 0.494429L30.5883 1.49271C31.0777 1.46395 31.5606 1.61584 31.9453 1.91954L32.5649 1.13462ZM30.5297 0.494429C29.7957 0.537563 29.1032 0.848636 28.5834 1.36862L29.2907 2.07555C29.6372 1.72888 30.099 1.52147 30.5883 1.49271L30.5297 0.494429ZM28.5648 1.38828L28.3698 1.60578L29.1143 2.27338L29.3093 2.05588L28.5648 1.38828ZM28.3497 1.62965C27.8942 2.20625 27.6664 2.93005 27.7096 3.66355L28.7079 3.60482C28.6791 3.11606 28.8309 2.63375 29.1344 2.24951L28.3497 1.62965ZM27.7096 3.66355C27.7527 4.39705 28.0638 5.08915 28.5838 5.60838L29.2904 4.90079C28.9439 4.55477 28.7366 4.09358 28.7079 3.60482L27.7096 3.66355ZM28.5838 5.60844L31.8319 8.85094L32.5384 8.14323L29.2903 4.90073L28.5838 5.60844ZM32.1851 7.99708H18.1878V8.99708H32.1851V7.99708ZM18.1795 7.99715L17.5794 8.00715L17.5961 9.00701L18.1962 8.99701L18.1795 7.99715ZM17.5707 8.00737C12.9081 8.16603 8.48931 10.129 5.24628 13.4823L5.9651 14.1775C9.02791 11.0106 13.2012 9.15664 17.6047 9.00679L17.5707 8.00737ZM5.24628 13.4823C2.00324 16.8357 0.189468 21.3172 0.1875 25.9819L1.1875 25.9823C1.18936 21.5769 2.9023 17.3445 5.9651 14.1775L5.24628 13.4823ZM0.1875 25.9821C0.1875 29.697 1.31403 33.1516 3.24626 36.0096L4.0747 35.4495C2.25133 32.7526 1.1875 29.4922 1.1875 25.9821H0.1875ZM3.25382 36.0205C3.7166 36.6674 4.41744 37.104 5.20214 37.2342L5.36588 36.2477C4.84277 36.1609 4.3756 35.8699 4.06714 35.4387L3.25382 36.0205ZM5.20214 37.2342C5.98683 37.3645 6.79115 37.1777 7.43815 36.715L6.85645 35.9016C6.42517 36.2101 5.88899 36.3346 5.36588 36.2477L5.20214 37.2342ZM7.43815 36.715C8.08514 36.2523 8.52183 35.5516 8.65211 34.767L7.66562 34.6032C7.57879 35.1261 7.28773 35.5932 6.85645 35.9016L7.43815 36.715ZM8.65211 34.767C8.78239 33.9823 8.59558 33.1781 8.1328 32.5312L7.31948 33.113C7.62794 33.5442 7.75245 34.0802 7.66562 34.6032L8.65211 34.767ZM8.15121 32.5588L7.81366 32.0138L6.96351 32.5404L7.30107 33.0854L8.15121 32.5588ZM7.82057 32.0253C6.75812 30.2025 6.19544 28.1317 6.18931 26.0219L5.18931 26.0248C5.19595 28.3105 5.80556 30.554 6.95661 32.5289L7.82057 32.0253ZM6.18931 26.0219C6.18318 23.9122 6.73381 21.8381 7.78565 20.0092L6.91878 19.5106C5.77923 21.4921 5.18267 23.7391 5.18931 26.0248L6.18931 26.0219ZM7.78565 20.0092C8.83748 18.1802 10.3533 16.661 12.1801 15.605L11.6796 14.7392C9.70052 15.8833 8.05832 17.5292 6.91878 19.5106L7.78565 20.0092ZM12.1801 15.605C14.0068 14.549 16.0799 13.9935 18.1901 13.9946L18.1906 12.9946C15.9046 12.9934 13.6587 13.5952 11.6796 14.7392L12.1801 15.605ZM18.1903 13.9946H32.1801V12.9946H18.1903V13.9946ZM31.8266 13.141L28.5836 16.3835L29.2906 17.0907L32.5336 13.8482L31.8266 13.141ZM28.5648 16.4033L28.3698 16.6208L29.1143 17.2884L29.3093 17.0709L28.5648 16.4033ZM28.3541 16.6391C27.8668 17.2382 27.6296 18.0023 27.6919 18.7721L28.6887 18.6914C28.6471 18.1785 28.8052 17.6693 29.13 17.2701L28.3541 16.6391ZM27.6919 18.7721C27.7542 19.5418 28.1113 20.2578 28.6886 20.7708L29.3528 20.0233C28.9681 19.6815 28.7302 19.2043 28.6887 18.6914L27.6919 18.7721ZM28.6886 20.7708C29.2659 21.2838 30.0189 21.5543 30.7907 21.5257L30.7538 20.5264C30.2394 20.5454 29.7376 20.3652 29.3528 20.0233L28.6886 20.7708ZM30.7907 21.5257C31.5625 21.4972 32.2936 21.172 32.8314 20.6178L32.1139 19.9213C31.7554 20.2907 31.2682 20.5074 30.7538 20.5264L30.7907 21.5257ZM32.826 20.6233L40.3422 13.1158L39.6355 12.4083L32.1193 19.9158L32.826 20.6233ZM40.3633 13.0935L40.5558 12.876L39.807 12.2132L39.6145 12.4307L40.3633 13.0935ZM40.5738 12.8545C41.0292 12.2779 41.257 11.5541 41.2139 10.8206L40.2156 10.8793C40.2444 11.3681 40.0926 11.8504 39.7891 12.2347L40.5738 12.8545ZM41.2139 10.8206C41.1707 10.0871 40.8596 9.39502 40.3397 8.87579L39.6331 9.58337C39.9795 9.92939 40.1868 10.3906 40.2156 10.8793L41.2139 10.8206ZM40.3398 8.87588L32.8261 1.36838L32.1192 2.07578L39.633 9.58328L40.3398 8.87588ZM48.057 15.8422C47.6727 15.3491 47.1438 14.9885 46.5443 14.8108L46.2602 15.7696C46.6597 15.888 47.0121 16.1283 47.2682 16.4569L48.057 15.8422ZM46.5443 14.8108C45.9449 14.6331 45.3049 14.6473 44.7139 14.8513L45.0402 15.7966C45.4341 15.6606 45.8606 15.6512 46.2602 15.7696L46.5443 14.8108ZM44.7139 14.8513C44.1229 15.0553 43.6105 15.439 43.2484 15.9486L44.0635 16.5279C44.3049 16.1882 44.6463 15.9326 45.0402 15.7966L44.7139 14.8513ZM43.2484 15.9486C42.8862 16.4583 42.6925 17.0684 42.6944 17.6936L43.6944 17.6906C43.6932 17.274 43.8222 16.8675 44.0635 16.5279L43.2484 15.9486ZM42.6944 17.6921C42.6944 18.3183 42.8865 18.8981 43.2109 19.3756L44.0381 18.8136C43.8223 18.4961 43.6944 18.1109 43.6944 17.6921H42.6944ZM43.2072 19.3701C44.4007 21.1777 45.0823 23.2748 45.1796 25.4385L46.1786 25.3936C46.0732 23.0494 45.3347 20.7774 44.0417 18.8191L43.2072 19.3701ZM45.1796 25.4385C45.2769 27.6023 44.7862 29.7521 43.7597 31.6594L44.6403 32.1333C45.7524 30.0669 46.284 27.7379 46.1786 25.3936L45.1796 25.4385ZM43.7597 31.6594C42.7333 33.5668 41.2093 35.1607 39.3497 36.2717L39.8625 37.1302C41.8772 35.9265 43.5283 34.1998 44.6403 32.1333L43.7597 31.6594ZM39.3497 36.2717C37.49 37.3827 35.3641 37.9695 33.1977 37.9696L33.1978 38.9696C35.5447 38.9695 37.8478 38.3338 39.8625 37.1302L39.3497 36.2717ZM33.1978 37.9696H19.2255V38.9696H33.1978V37.9696ZM19.5785 38.8237L22.814 35.5987L22.1081 34.8905L18.8725 38.1155L19.5785 38.8237ZM22.8392 35.5716L23.0468 35.3316L22.2904 34.6775L22.0828 34.9175L22.8392 35.5716ZM23.0643 35.3102C23.4729 34.7811 23.6931 34.1306 23.6898 33.4621L22.6898 33.4669C22.692 33.9126 22.5453 34.3462 22.2728 34.699L23.0643 35.3102ZM23.6898 33.4621C23.6866 32.7935 23.4601 32.1453 23.0463 31.6201L22.2608 32.239C22.5367 32.5891 22.6877 33.0213 22.6898 33.4669L23.6898 33.4621ZM23.0298 31.6003L22.8373 31.3803L22.0848 32.0389L22.2773 32.2589L23.0298 31.6003ZM22.7922 31.335L22.5547 31.125L21.8923 31.8742L22.1299 32.0842L22.7922 31.335ZM22.5292 31.104C21.9994 30.6945 21.3479 30.4739 20.6782 30.4771L20.6831 31.4771C21.1298 31.4749 21.5643 31.6221 21.9178 31.8952L22.5292 31.104ZM20.6782 30.4771C20.0086 30.4804 19.3592 30.7073 18.8334 31.122L19.4526 31.9072C19.8033 31.6307 20.2364 31.4793 20.6831 31.4771L20.6782 30.4771ZM18.8114 31.1404L18.5913 31.3354L19.2546 32.0838L19.4746 31.8888L18.8114 31.1404ZM18.5696 31.3559L11.0558 38.8634L11.7626 39.5708L19.2764 32.0633L18.5696 31.3559ZM11.0327 38.8881L10.8252 39.1256L11.5782 39.7836L11.7857 39.5461L11.0327 38.8881ZM10.8062 39.1487C10.3968 39.6781 10.1762 40.3292 10.1795 40.9984L11.1794 40.9935C11.1773 40.5474 11.3243 40.1134 11.5972 39.7604L10.8062 39.1487ZM10.1795 40.9984C10.1827 41.6675 10.4097 42.3164 10.8242 42.8418L11.6092 42.2224C11.3329 41.8721 11.1816 41.4396 11.1794 40.9935L10.1795 40.9984ZM10.8423 42.8635L11.0349 43.081L11.7836 42.4182L11.5911 42.2007L10.8423 42.8635ZM11.0558 43.1033L18.5696 50.6108L19.2764 49.9034L11.7626 42.3959L11.0558 43.1033ZM18.5918 50.6317L18.8293 50.8417L19.4917 50.0925L19.2541 49.8825L18.5918 50.6317ZM18.8549 50.8628C19.4342 51.3102 20.157 51.5304 20.8874 51.482L20.8212 50.4842C20.3343 50.5165 19.8523 50.3696 19.4661 50.0714L18.8549 50.8628ZM20.8874 51.482C21.6177 51.4336 22.3052 51.12 22.8203 50.6001L22.11 49.8962C21.7666 50.2428 21.3082 50.4519 20.8212 50.4842L20.8874 51.482ZM22.8203 50.6001C23.3355 50.0802 23.6429 49.3899 23.6845 48.6592L22.6861 48.6023C22.6584 49.0894 22.4535 49.5496 22.11 49.8962L22.8203 50.6001ZM23.6845 48.6592C23.7261 47.9285 23.4992 47.2078 23.0464 46.6328L22.2607 47.2514C22.5626 47.6348 22.7139 48.1152 22.6861 48.6023L23.6845 48.6592ZM23.028 46.6107L22.8354 46.3932L22.0866 47.056L22.2792 47.2735L23.028 46.6107ZM22.8144 46.3709L19.5539 43.1134L18.8471 43.8208L22.1076 47.0783L22.8144 46.3709ZM19.2005 43.9671H33.1928V42.9671H19.2005V43.9671ZM33.199 43.967L33.7991 43.9595L33.7866 42.9596L33.1865 42.9671L33.199 43.967ZM33.81 43.9593C37.0267 43.8488 40.1549 42.8777 42.8686 41.1473L42.331 40.3041C39.7681 41.9384 36.8137 42.8555 33.7757 42.9599L33.81 43.9593ZM42.8686 41.1473C45.5823 39.4168 47.7822 36.9903 49.2389 34.1207L48.3472 33.668C46.9715 36.3782 44.8939 38.6698 42.331 40.3041L42.8686 41.1473ZM49.2389 34.1207C50.6956 31.251 51.3559 28.0432 51.151 24.8316L50.153 24.8953C50.3466 27.9284 49.723 30.9579 48.3472 33.668L49.2389 34.1207ZM51.151 24.8316C50.946 21.62 49.8833 18.5222 48.0736 15.8609L47.2467 16.4232C48.9558 18.9366 49.9594 21.8623 50.153 24.8953L51.151 24.8316ZM47.1601 16.1421V16.1496H48.1601V16.1421H47.1601ZM47.6601 16.6496H47.6626V15.6496H47.6601V16.6496Z" fill="black" mask="url(#path-1-inside-1_35_126)"/>
</svg>
