<svg width="50" height="50" viewBox="0 0 50 50" fill="none" xmlns="http://www.w3.org/2000/svg">
<path d="M30.65 4.76877L30.4688 4.60627C30.0681 4.28993 29.5652 4.13172 29.0556 4.16167C28.5459 4.19163 28.065 4.40766 27.7042 4.76877L27.5417 4.95002C27.2255 5.35037 27.0673 5.85291 27.0973 6.36219C27.1273 6.87146 27.3432 7.352 27.7042 7.71252L30.4104 10.4146H18.7479L18.2479 10.4229C14.4709 10.5515 10.8915 12.1418 8.2645 14.8586C5.63749 17.5754 4.16826 21.2063 4.16667 24.9854C4.16064 27.88 5.02357 30.7097 6.64375 33.1083C6.96505 33.5576 7.45164 33.8607 7.99647 33.9512C8.5413 34.0416 9.09975 33.9119 9.54896 33.5906C9.99817 33.2693 10.3013 32.7828 10.3918 32.2379C10.4822 31.6931 10.3526 31.1346 10.0313 30.6854L9.75 30.2313C8.82786 28.6489 8.33949 26.8513 8.33417 25.0198C8.32884 23.1884 8.80677 21.388 9.7197 19.8003C10.6326 18.2126 11.9482 16.8938 13.5338 15.9771C15.1193 15.0604 16.9186 14.5782 18.75 14.5792H30.4063L27.7042 17.2813L27.5417 17.4625C27.2034 17.8785 27.0387 18.409 27.0819 18.9435C27.1252 19.4779 27.3731 19.9751 27.7738 20.3313C28.1746 20.6875 28.6974 20.8752 29.2332 20.8554C29.7691 20.8356 30.2766 20.6098 30.65 20.225L36.9125 13.9688L37.0729 13.7875C37.3891 13.3872 37.5472 12.8846 37.5173 12.3753C37.4873 11.8661 37.2714 11.3855 36.9104 11.025L30.65 4.76877V4.76877ZM43.3063 16.7917C43.0395 16.4493 42.6723 16.1989 42.2561 16.0755C41.8399 15.9522 41.3956 15.962 40.9853 16.1037C40.575 16.2453 40.2193 16.5117 39.9679 16.8656C39.7165 17.2194 39.5821 17.643 39.5833 18.0771C39.5833 18.5125 39.7167 18.9146 39.9417 19.2458C40.9776 20.815 41.5691 22.6354 41.6536 24.5138C41.738 26.3921 41.3121 28.2583 40.4212 29.914C39.5303 31.5698 38.2076 32.9534 36.5936 33.9178C34.9795 34.8823 33.1344 35.3916 31.2542 35.3917H19.6125L22.3083 32.7042L22.4813 32.5042C22.765 32.1367 22.9178 31.685 22.9156 31.2208C22.9133 30.7565 22.756 30.3064 22.4688 29.9417L22.3083 29.7584L22.1104 29.5833C21.7425 29.2989 21.29 29.1457 20.8249 29.148C20.3599 29.1502 19.9089 29.3079 19.5438 29.5959L19.3604 29.7584L13.1 36.0146L12.9271 36.2125C12.6428 36.5802 12.4897 37.0323 12.4919 37.497C12.4942 37.9617 12.6518 38.4123 12.9396 38.7771L13.1 38.9584L19.3604 45.2146L19.5583 45.3896C19.9606 45.7003 20.4625 45.8532 20.9696 45.8196C21.4767 45.786 21.9541 45.5682 22.3118 45.2071C22.6695 44.8461 22.8829 44.3667 22.9118 43.8593C22.9407 43.3519 22.7831 42.8514 22.4688 42.4521L22.3083 42.2709L19.5917 39.5563H31.25L31.75 39.55C34.3557 39.4605 36.8897 38.6738 39.0879 37.2718C41.2861 35.8698 43.0681 33.9039 44.2481 31.579C45.4281 29.2541 45.963 26.6552 45.797 24.0533C45.631 21.4513 44.7701 18.9415 43.3042 16.7854V16.7917H43.3063Z" fill="black"/>
</svg>
