<svg width="50" height="50" viewBox="0 0 50 50" fill="none" xmlns="http://www.w3.org/2000/svg">
<path fill-rule="evenodd" clip-rule="evenodd" d="M46.1656 10.8906L43.7282 10.3156L37.1407 16.8656L33.4094 13.0656L39.8344 6.32495L39.2719 3.84995C37.9142 3.39574 36.4941 3.15536 35.0625 3.13745C33.5008 3.11344 31.9509 3.41129 30.5094 4.01245C29.1175 4.64249 27.8594 5.53358 26.8031 6.63745C25.6274 7.75124 24.6962 9.09748 24.0688 10.5906C22.8608 13.5621 22.8608 16.8878 24.0688 19.8593C17.5539 26.2687 11.1231 32.763 4.77815 39.3406C4.1219 40.2 3.8094 41.2718 3.89065 42.35C3.95469 43.5095 4.47617 44.5963 5.34065 45.3718C5.72815 45.7937 6.19065 46.1437 6.70627 46.3968C7.23752 46.6312 7.8094 46.7656 8.38752 46.7937C9.37502 46.775 10.3219 46.4 11.0563 45.7406C15.8938 41.1875 25.1625 31.8343 30.4282 26.3531C31.8563 26.9593 33.3906 27.2718 34.9406 27.2687C36.5009 27.2675 38.0451 26.9535 39.4819 26.3454C40.9188 25.7373 42.2192 24.8473 43.3063 23.7281C45.5392 21.4508 46.7864 18.3862 46.7781 15.1968C46.8143 13.7374 46.6073 12.2821 46.1656 10.8906V10.8906ZM9.16565 43.525C9.04537 43.6318 8.90038 43.7069 8.74377 43.7437C8.58971 43.7704 8.43221 43.7704 8.27815 43.7437C8.11662 43.7191 7.96276 43.6582 7.82815 43.5656C7.6837 43.481 7.56155 43.3632 7.4719 43.2218C7.0344 42.775 6.62502 41.925 7.0344 41.4468C11.3156 36.8937 20.1313 27.9937 25.6438 22.5531C25.9563 22.9656 26.3 23.3593 26.6688 23.7281C27.0375 24.1125 27.4344 24.4687 27.8563 24.7937C22.525 30.2625 13.8313 39.0562 9.16877 43.525H9.16565ZM43.9094 15.1968C43.9156 17.5875 42.9844 19.8843 41.3094 21.5968C39.6379 23.2365 37.3899 24.155 35.0485 24.155C32.707 24.155 30.459 23.2365 28.7875 21.5968C27.5625 20.3184 26.7256 18.7184 26.3743 16.9829C26.023 15.2475 26.1717 13.4479 26.8031 11.7937C27.2234 10.6679 27.8753 9.64278 28.7167 8.78473C29.5581 7.92668 30.5702 7.25477 31.6875 6.81245C32.7484 6.36842 33.8874 6.14104 35.0375 6.1437H35.8313L30.1532 11.9968V14.1718L36.075 20.0656H38.1375L43.9094 14.3906V15.1968V15.1968ZM10.125 20.9H14.9094L17.1125 23.1406L19.2313 21.0343L17.1531 18.9156V18.7812L17.3313 13.6281L16.6438 12.2625L7.70627 6.3812L5.8594 6.58745L3.26252 9.24058L3.05627 11.1125L8.80002 20.2312L10.125 20.9031V20.9ZM7.1719 9.54995L14.4032 14.3125L14.2813 17.8218H10.9188L6.25627 10.4406L7.1719 9.54995V9.54995ZM29.375 31.3L31.4813 29.1968L41.1875 39.15C42.0051 40.0092 42.461 41.1498 42.461 42.3359C42.461 43.5219 42.0051 44.6626 41.1875 45.5218C40.5728 46.153 39.7823 46.5844 38.9189 46.76C38.0555 46.9355 37.1593 46.8471 36.3469 46.5062C35.8284 46.2762 35.3634 45.941 34.9813 45.5218L25.1625 35.5125L27.2844 33.3937L37.0719 43.375C37.2035 43.5201 37.3672 43.6325 37.55 43.7031C37.9097 43.8492 38.3122 43.8492 38.6719 43.7031C38.8546 43.6324 39.0183 43.52 39.15 43.375C39.2868 43.2394 39.3933 43.0765 39.4625 42.8968C39.5342 42.7135 39.5723 42.5187 39.575 42.3218C39.5719 42.1253 39.5349 41.9308 39.4656 41.7468C39.3964 41.5672 39.2899 41.4042 39.1532 41.2687L29.375 31.3Z" fill="black"/>
</svg>
