<svg width="61" height="60" viewBox="0 0 61 60" fill="none" xmlns="http://www.w3.org/2000/svg">
<g clip-path="url(#clip0_1_164)">
<rect width="60" height="60" transform="translate(0.6875)" fill="white"/>
<path fill-rule="evenodd" clip-rule="evenodd" d="M59.8415 10.644L56.4968 9.85472L47.4576 18.8454L42.3376 13.6294L51.1539 4.37709L50.382 0.979842C48.519 0.35637 46.5704 0.0264312 44.606 0.0018459C42.4631 -0.0311176 40.3363 0.377723 38.3583 1.20289C36.4484 2.06769 34.722 3.29082 33.2726 4.80604C31.6592 6.33485 30.3814 8.18272 29.5205 10.2322C27.863 14.311 27.863 18.8759 29.5205 22.9547C20.5809 31.7524 11.7567 40.6666 3.05023 49.6952C2.14973 50.8748 1.72093 52.3461 1.83242 53.8259C1.92029 55.4176 2.63586 56.9094 3.82208 57.9738C4.35381 58.5529 4.98844 59.0333 5.69597 59.3808C6.42495 59.7025 7.20966 59.8869 8.00296 59.9255C9.35799 59.8998 10.6573 59.3851 11.665 58.48C18.3029 52.2302 31.0214 39.3919 38.2468 31.8682C40.2064 32.7004 42.3119 33.1293 44.4387 33.125C46.5797 33.1233 48.6986 32.6924 50.6702 31.8577C52.6419 31.0229 54.4262 29.8013 55.9179 28.2651C58.982 25.1392 60.6933 20.9327 60.682 16.5549C60.7315 14.5516 60.4475 12.554 59.8415 10.644V10.644ZM9.07069 55.4388C8.90564 55.5854 8.70669 55.6886 8.4918 55.739C8.2804 55.7756 8.06428 55.7756 7.85288 55.739C7.63122 55.7052 7.42011 55.6216 7.23539 55.4945C7.03718 55.3785 6.86958 55.2167 6.74655 55.0227C6.14622 54.4093 5.58448 53.2426 6.14622 52.5863C12.0209 46.3365 24.1175 34.1202 31.6817 26.6522C32.1105 27.2184 32.5822 27.7589 33.0882 28.2651C33.5942 28.7927 34.1388 29.2817 34.7177 29.7278C27.4022 37.2343 15.4728 49.3048 9.07498 55.4388H9.07069ZM56.7455 16.5549C56.7541 19.8363 55.4763 22.989 53.1778 25.3397C50.8843 27.5903 47.7996 28.8511 44.5867 28.8511C41.3738 28.8511 38.2891 27.5903 35.9955 25.3397C34.3145 23.5848 33.1662 21.3886 32.6842 19.0065C32.2021 16.6244 32.4062 14.1543 33.2726 11.8836C33.8493 10.3383 34.7438 8.93123 35.8984 7.75345C37.0529 6.57566 38.4416 5.65338 39.9749 5.04624C41.4306 4.43675 42.9935 4.12465 44.5717 4.1283H45.6608L37.8694 12.1624V15.1479L45.9953 23.2378H48.8254L56.7455 15.4482V16.5549V16.5549ZM10.3871 24.3831H16.9522L19.9753 27.4586L22.8826 24.5676L20.031 21.6593V21.4749L20.2754 14.4015L19.3321 12.5271L7.06816 4.4543L4.5339 4.7374L0.970513 8.37915L0.6875 10.9485L8.56898 23.4652L10.3871 24.3874V24.3831ZM6.3349 8.80381L16.2575 15.3409L16.0903 20.158H11.4763L5.07849 10.0263L6.3349 8.80381V8.80381ZM36.8017 38.6584L39.6918 35.7716L53.0106 49.4335C54.1325 50.6129 54.7581 52.1786 54.7581 53.8066C54.7581 55.4346 54.1325 57.0003 53.0106 58.1797C52.1671 59.046 51.0823 59.6382 49.8976 59.8792C48.7129 60.1202 47.4832 59.9988 46.3684 59.5309C45.6569 59.2152 45.0188 58.7551 44.4945 58.1797L31.0214 44.4406L33.933 41.5323L47.3632 55.2329C47.5438 55.4321 47.7685 55.5864 48.0193 55.6833C48.5128 55.8838 49.0651 55.8838 49.5587 55.6833C49.8094 55.5862 50.0341 55.432 50.2148 55.2329C50.4025 55.0469 50.5486 54.8232 50.6436 54.5766C50.742 54.3249 50.7943 54.0575 50.798 53.7873C50.7937 53.5176 50.7429 53.2506 50.6479 52.9981C50.5529 52.7514 50.4068 52.5278 50.2191 52.3418L36.8017 38.6584Z" fill="black"/>
</g>
<defs>
<clipPath id="clip0_1_164">
<rect width="60" height="60" fill="white" transform="translate(0.6875)"/>
</clipPath>
</defs>
</svg>
