<svg width="50" height="50" viewBox="0 0 50 50" fill="none" xmlns="http://www.w3.org/2000/svg">
<path d="M12.4917 18.75C15.4354 18.75 16.9917 17.1937 18.1271 16.0562C19.1479 15.0354 19.65 14.5833 20.8188 14.5833C21.9875 14.5833 22.4896 15.0354 23.5104 16.0562C24.6458 17.1937 26.2021 18.75 29.1479 18.75C32.0958 18.75 33.6542 17.1937 34.7938 16.0562C35.8167 15.0354 36.3188 14.5833 37.4917 14.5833C38.6646 14.5833 39.1667 15.0354 40.1896 16.0562C41.3271 17.1937 42.8854 18.75 45.8333 18.75V14.5833C44.6604 14.5833 44.1583 14.1312 43.1354 13.1104C41.9979 11.9729 40.4396 10.4166 37.4917 10.4166C34.5438 10.4166 32.9875 11.9729 31.8479 13.1083C30.825 14.1312 30.325 14.5833 29.1479 14.5833C27.9771 14.5833 27.4771 14.1312 26.4563 13.1104C25.3208 11.9729 23.7646 10.4166 20.8188 10.4166C17.8729 10.4166 16.3167 11.9729 15.1813 13.1104C14.1604 14.1312 13.6604 14.5833 12.4917 14.5833C11.3229 14.5833 10.8229 14.1312 9.80209 13.1104C8.66667 11.9729 7.11042 10.4166 4.16667 10.4166V14.5833C5.33542 14.5833 5.83542 15.0354 6.85625 16.0562C7.99167 17.1937 9.54792 18.75 12.4917 18.75ZM12.4917 29.1666C15.4354 29.1666 16.9917 27.6104 18.1271 26.4729C19.1479 25.452 19.65 25 20.8188 25C21.9875 25 22.4896 25.452 23.5104 26.4729C24.6458 27.6104 26.2021 29.1666 29.1479 29.1666C32.0958 29.1666 33.6542 27.6104 34.7938 26.4729C35.8167 25.452 36.3188 25 37.4917 25C38.6646 25 39.1667 25.452 40.1896 26.4729C41.3271 27.6104 42.8854 29.1666 45.8333 29.1666V25C44.6604 25 44.1583 24.5479 43.1354 23.527C41.9979 22.3895 40.4396 20.8333 37.4917 20.8333C34.5438 20.8333 32.9875 22.3895 31.8479 23.525C30.825 24.5479 30.325 25 29.1479 25C27.9771 25 27.4771 24.5479 26.4563 23.527C25.3208 22.3895 23.7646 20.8333 20.8188 20.8333C17.8729 20.8333 16.3167 22.3895 15.1813 23.527C14.1604 24.5479 13.6604 25 12.4917 25C11.3229 25 10.8229 24.5479 9.80209 23.527C8.66667 22.3895 7.11042 20.8333 4.16667 20.8333V25C5.33542 25 5.83542 25.452 6.85625 26.4729C7.99167 27.6104 9.54792 29.1666 12.4917 29.1666ZM12.4917 39.5833C15.4354 39.5833 16.9917 38.027 18.1271 36.8895C19.1479 35.8687 19.65 35.4166 20.8188 35.4166C21.9875 35.4166 22.4896 35.8687 23.5104 36.8895C24.6458 38.027 26.2021 39.5833 29.1479 39.5833C32.0958 39.5833 33.6542 38.027 34.7938 36.8895C35.8167 35.8687 36.3188 35.4166 37.4917 35.4166C38.6646 35.4166 39.1667 35.8687 40.1896 36.8895C41.3271 38.027 42.8854 39.5833 45.8333 39.5833V35.4166C44.6604 35.4166 44.1583 34.9645 43.1354 33.9437C41.9979 32.8062 40.4396 31.25 37.4917 31.25C34.5438 31.25 32.9875 32.8062 31.8479 33.9416C30.825 34.9645 30.325 35.4166 29.1479 35.4166C27.9771 35.4166 27.4771 34.9645 26.4563 33.9437C25.3208 32.8062 23.7646 31.25 20.8188 31.25C17.8729 31.25 16.3167 32.8062 15.1813 33.9437C14.1604 34.9645 13.6604 35.4166 12.4917 35.4166C11.3229 35.4166 10.8229 34.9645 9.80209 33.9437C8.66667 32.8062 7.11042 31.25 4.16667 31.25V35.4166C5.33542 35.4166 5.83542 35.8687 6.85625 36.8895C7.99167 38.027 9.54792 39.5833 12.4917 39.5833Z" fill="black"/>
</svg>
