<svg width="56" height="60" viewBox="0 0 56 60" fill="none" xmlns="http://www.w3.org/2000/svg">
<path d="M16.1013 23.5714C18.9549 23.5714 20.4635 21.9707 21.5641 20.8007C22.5537 19.7507 23.0404 19.2857 24.1734 19.2857C25.3063 19.2857 25.793 19.7507 26.7826 20.8007C27.8832 21.9707 29.3918 23.5714 32.2474 23.5714C35.1051 23.5714 36.6157 21.9707 37.7204 20.8007C38.712 19.7507 39.1987 19.2857 40.3357 19.2857C41.4727 19.2857 41.9594 19.7507 42.951 20.8007C44.0536 21.9707 45.5642 23.5714 48.4219 23.5714V19.2857C47.2849 19.2857 46.7982 18.8207 45.8066 17.7707C44.7039 16.6007 43.1933 15 40.3357 15C37.478 15 35.9694 16.6007 34.8648 17.7686C33.8732 18.8207 33.3885 19.2857 32.2474 19.2857C31.1125 19.2857 30.6278 18.8207 29.6382 17.7707C28.5376 16.6007 27.029 15 24.1734 15C21.3177 15 19.8092 16.6007 18.7085 17.7707C17.7189 18.8207 17.2343 19.2857 16.1013 19.2857C14.9683 19.2857 14.4837 18.8207 13.4941 17.7707C12.3934 16.6007 10.8848 15 8.03125 15V19.2857C9.16421 19.2857 9.64889 19.7507 10.6385 20.8007C11.7391 21.9707 13.2477 23.5714 16.1013 23.5714ZM16.1013 34.2857C18.9549 34.2857 20.4635 32.685 21.5641 31.515C22.5537 30.465 23.0404 30 24.1734 30C25.3063 30 25.793 30.465 26.7826 31.515C27.8832 32.685 29.3918 34.2857 32.2474 34.2857C35.1051 34.2857 36.6157 32.685 37.7204 31.515C38.712 30.465 39.1987 30 40.3357 30C41.4727 30 41.9594 30.465 42.951 31.515C44.0536 32.685 45.5642 34.2857 48.4219 34.2857V30C47.2849 30 46.7982 29.535 45.8066 28.485C44.7039 27.315 43.1933 25.7143 40.3357 25.7143C37.478 25.7143 35.9694 27.315 34.8648 28.4829C33.8732 29.535 33.3885 30 32.2474 30C31.1125 30 30.6278 29.535 29.6382 28.485C28.5376 27.315 27.029 25.7143 24.1734 25.7143C21.3177 25.7143 19.8092 27.315 18.7085 28.485C17.7189 29.535 17.2343 30 16.1013 30C14.9683 30 14.4837 29.535 13.4941 28.485C12.3934 27.315 10.8848 25.7143 8.03125 25.7143V30C9.16421 30 9.64889 30.465 10.6385 31.515C11.7391 32.685 13.2477 34.2857 16.1013 34.2857ZM16.1013 45C18.9549 45 20.4635 43.3993 21.5641 42.2293C22.5537 41.1793 23.0404 40.7143 24.1734 40.7143C25.3063 40.7143 25.793 41.1793 26.7826 42.2293C27.8832 43.3993 29.3918 45 32.2474 45C35.1051 45 36.6157 43.3993 37.7204 42.2293C38.712 41.1793 39.1987 40.7143 40.3357 40.7143C41.4727 40.7143 41.9594 41.1793 42.951 42.2293C44.0536 43.3993 45.5642 45 48.4219 45V40.7143C47.2849 40.7143 46.7982 40.2493 45.8066 39.1993C44.7039 38.0293 43.1933 36.4286 40.3357 36.4286C37.478 36.4286 35.9694 38.0293 34.8648 39.1971C33.8732 40.2493 33.3885 40.7143 32.2474 40.7143C31.1125 40.7143 30.6278 40.2493 29.6382 39.1993C28.5376 38.0293 27.029 36.4286 24.1734 36.4286C21.3177 36.4286 19.8092 38.0293 18.7085 39.1993C17.7189 40.2493 17.2343 40.7143 16.1013 40.7143C14.9683 40.7143 14.4837 40.2493 13.4941 39.1993C12.3934 38.0293 10.8848 36.4286 8.03125 36.4286V40.7143C9.16421 40.7143 9.64889 41.1793 10.6385 42.2293C11.7391 43.3993 13.2477 45 16.1013 45Z" fill="black"/>
</svg>
